<?xml version="1.0" encoding="UTF-8"?>
<svg width="320px" height="320px" viewBox="0 0 320 320" version="1.1" xmlns="http://www.w3.org/2000/svg" xmlns:xlink="http://www.w3.org/1999/xlink">
    <!-- Generator: Sketch 63.1 (92452) - https://sketch.com -->
    <title>icon_top_bar</title>
    <desc>Created with Sketch.</desc>
    <g id="icon_top_bar" stroke="none" stroke-width="1" fill="none" fill-rule="evenodd">
        <g id="Amazon-Connect-Copy-2" transform="translate(0.000000, 19.000000)" fill="#FFFFFF" fill-rule="nonzero">
            <g id="Icon_Test">
                <path d="M267.921569,89.7254902 C266.603922,69.9607843 256.564706,55.2784314 240.564706,50.0078431 C228.325314,45.963688 214.873836,48.3194635 204.737255,56.2823529 C200.201016,45.9517499 193.822586,36.5329347 185.913725,28.4862745 C161.984775,3.34807352 124.837663,-4.03613931 93.1137255,10.0392157 C63.510035,24.1761744 44.4569737,53.8493732 43.9215686,86.6509804 L43.9215686,91.2313725 C18.4897703,98.687 1.49195282,122.613699 2.82352941,149.082353 C2.30531572,171.852251 13.9154059,193.185195 33.3176471,205.113725 C39.2814805,208.570515 46.1425145,210.165597 53.0196078,209.694118 L109.490196,210.196078 L109.490196,272.941176 C109.497357,275.303895 110.831187,277.462273 112.941176,278.52549 C114.971403,279.495243 117.365455,279.303719 119.215686,278.023529 L212.266667,210.196078 L260.831373,210.196078 C261.396078,210.196078 316.862745,205.364706 316.862745,149.584314 C316.862745,106.980392 284.047059,93.6784314 267.921569,89.7254902 Z M260.392157,197.647059 L210.196078,197.647059 C208.866971,197.642325 207.570693,198.059771 206.494118,198.839216 L122.352941,260.580392 L122.352941,204.109804 C122.352941,200.644488 119.543747,197.835294 116.078431,197.835294 L53.3333333,197.835294 C48.7920569,198.063023 44.2817225,196.97357 40.345098,194.698039 C24.5242789,185.120412 15.098172,167.755268 15.6862745,149.270588 C14.4695907,126.619255 30.0820548,106.515534 52.3294118,102.086275 C55.1730193,101.353625 57.1281605,98.7467698 57.0352941,95.8117647 L56.4705882,86.2745098 C57.218577,58.7498113 73.1666791,33.9094341 97.8823529,21.772549 C106.982591,17.7588007 116.799824,15.6246196 126.745098,15.4980392 C145.710679,15.9475443 163.739326,23.835077 176.941176,37.4588235 C185.80362,46.5800084 192.495085,57.5823202 196.517647,69.6470588 C197.288358,71.8550331 199.223054,73.4511574 201.537255,73.7882353 C203.823267,74.1329708 206.113652,73.1927072 207.498039,71.3411765 C214.108003,62.1855821 225.865818,58.333884 236.611765,61.8039216 C248.533333,65.7568627 255.435294,77.4901961 255.435294,93.7411765 C254.9034,97.1106129 257.160819,100.287721 260.517647,100.894118 C273.694118,103.152941 304.439216,112.376471 304.439216,149.458824 C304.313725,193.631373 261.709804,197.521569 260.392157,197.647059 Z" id="Shape"></path>
                <path d="M225.882353,90.9803922 C213.753747,90.9803922 203.921569,100.81257 203.921569,112.941176 C203.821955,117.032529 204.911777,121.064873 207.058824,124.54902 L184.909804,149.647059 C188.901558,151.421145 192.252496,154.377855 194.509804,158.117647 L216.784314,133.019608 C219.632466,134.3366 222.745436,134.980662 225.882353,134.901961 C238.010959,134.901961 247.843137,125.069783 247.843137,112.941176 C247.843137,100.81257 238.010959,90.9803922 225.882353,90.9803922 Z M225.882353,122.352941 C220.684379,122.352941 216.470588,118.139151 216.470588,112.941176 C216.470588,107.743202 220.684379,103.529412 225.882353,103.529412 C231.080327,103.529412 235.294118,107.743202 235.294118,112.941176 C235.294118,118.139151 231.080327,122.352941 225.882353,122.352941 Z" id="Shape"></path>
                <path d="M194.509804,158.117647 C192.335283,154.42561 189.099376,151.473939 185.223529,149.647059 C182.261518,148.174822 178.993868,147.422402 175.686275,147.45098 C173.562154,147.421172 171.446034,147.717429 169.411765,148.329412 L147.639216,115.137255 C151.481838,111.183294 153.660393,105.905352 153.72549,100.392157 C153.72549,88.2635506 143.893312,78.4313725 131.764706,78.4313725 C119.6361,78.4313725 109.803922,88.2635506 109.803922,100.392157 C109.888465,104.162512 110.970982,107.843072 112.941176,111.058824 L86.1490196,137.6 C77.5340028,132.701883 66.7058902,134.180508 59.7195111,141.209062 C52.733132,148.237616 51.3197031,159.074432 56.269581,167.659813 C61.2194588,176.245194 71.3060695,180.451694 80.8892144,177.927135 C90.4723592,175.402576 97.1773461,166.772541 97.254902,156.862745 C97.2687448,153.244112 96.3618793,149.681426 94.6196078,146.509804 L121.537255,119.780392 C126.322658,122.351576 131.901625,123.023741 137.160784,121.662745 L159.121569,155.105882 C155.632502,159.053305 153.71255,164.14341 153.72549,169.411765 C153.725491,181.540371 163.557669,191.372548 175.686275,191.372548 C187.81488,191.372548 197.648096,181.540371 197.648096,169.411765 C197.686533,165.426637 196.59899,161.511481 194.509804,158.117647 Z M75.2941176,166.27451 C70.0961435,166.27451 65.8823529,162.060719 65.8823529,156.862745 C65.8823529,151.664771 70.0961435,147.45098 75.2941176,147.45098 C80.4920918,147.45098 84.7058824,151.664771 84.7058824,156.862745 C84.7058824,162.060719 80.4920918,166.27451 75.2941176,166.27451 Z M131.764706,109.803922 C126.566732,109.803922 122.352941,105.590131 122.352941,100.392157 C122.352941,95.1941827 126.566732,90.9803922 131.764706,90.9803922 C136.96268,90.9803922 141.176471,95.1941827 141.176471,100.392157 C141.176471,105.590131 136.96268,109.803922 131.764706,109.803922 Z M175.686275,178.823529 C170.4883,178.823529 166.27451,174.609739 166.27451,169.411765 C166.27451,164.213791 170.4883,160 175.686275,160 C180.884249,160 185.098039,164.213791 185.098039,169.411765 C185.098039,174.609739 180.884249,178.823529 175.686275,178.823529 Z" id="Shape"></path>
            </g>
        </g>
    </g>
</svg>